# This file uses centimeters as units for non-parametric coordinates.

mtllib Block.mtl
g default
v 7.905956 22.326323 0.440936
v 10.034911 23.519690 0.440936
v 8.357908 22.821836 0.440936
v 10.027968 24.606323 0.440936
v 8.357908 22.821836 -0.500686
v 10.027968 24.606323 -0.500686
v 7.905956 22.326323 -0.500686
v 10.034911 23.519690 -0.500686
v 8.766258 22.603977 0.440936
v 8.970433 22.341297 0.440936
v 9.158169 22.735266 0.440936
v 8.131932 22.574080 0.440936
v 9.473596 23.261478 0.440936
v 10.031440 23.864883 0.440936
v 9.192939 23.714081 0.440936
v 9.473596 23.261478 -0.500686
v 10.031440 23.864883 -0.500686
v 9.158169 22.735266 -0.500686
v 9.192939 23.714081 -0.500686
v 8.766258 22.501478 -0.500686
v 8.970433 22.341297 -0.500686
v 8.131932 22.574080 -0.500686
vt 0.000000 0.000000
vt 0.500000 0.000000
vt 0.000000 0.500000
vt 0.333333 0.333333
vt 0.000000 1.000000
vt 0.500000 0.500000
vt 0.500000 1.000000
vt 0.666667 0.666667
vt 0.000000 0.000000
vt 0.500000 0.000000
vt 0.000000 1.000000
vt 1.000000 0.000000
vt 0.500000 1.000000
vt 1.000000 1.000000
vt 1.000000 0.000000
vt 1.000000 0.500000
vt 0.500000 0.000000
vt 0.666667 0.333333
vt 0.000000 0.500000
vt 0.000000 0.000000
vt 0.333333 0.666667
vt 0.500000 0.500000
vt 0.000000 0.000000
vt 0.500000 0.000000
vt 0.000000 1.000000
vt 1.000000 0.000000
vt 0.500000 1.000000
vt 1.000000 1.000000
vt 0.000000 0.000000
vt 1.000000 0.000000
vt 0.000000 0.500000
vt 0.000000 1.000000
vt 1.000000 0.500000
vt 1.000000 1.000000
vt 0.000000 1.000000
vt 0.000000 0.500000
vt 1.000000 0.000000
vt 0.000000 0.000000
vt 1.000000 0.500000
vt 1.000000 1.000000
vt 1.000000 0.000000
vt 1.000000 0.500000
vt 1.000000 1.000000
vt 1.000000 1.000000
vt 0.500000 1.000000
vt 0.000000 1.000000
vn 0.000000 0.000000 1.000000
vn 0.000000 0.000000 1.000000
vn 0.000000 0.000000 1.000000
vn 0.000000 0.000000 1.000000
vn 0.000000 0.000000 1.000000
vn 0.000000 0.000000 1.000000
vn 0.000000 0.000000 1.000000
vn 0.000000 0.000000 1.000000
vn 0.000000 0.000000 1.000000
vn 0.000000 0.000000 1.000000
vn 0.000000 0.000000 1.000000
vn 0.000000 0.000000 1.000000
vn -0.732014 0.681289 0.000000
vn -0.730128 0.683310 0.000003
vn -0.732014 0.681290 0.000000
vn -0.732014 0.681290 0.000000
vn -0.730128 0.683310 0.000003
vn 0.267500 0.963558 0.000001
vn -0.732014 0.681290 0.000000
vn 0.267500 0.963558 0.000001
vn -0.730128 0.683311 -0.000001
vn -0.730128 0.683311 -0.000001
vn 0.267500 0.963558 0.000001
vn 0.267501 0.963558 0.000000
vn 0.000000 0.000000 -1.000000
vn 0.000000 0.000000 -1.000000
vn 0.000000 0.000000 -1.000000
vn 0.000000 0.000000 -1.000000
vn 0.000000 0.000000 -1.000000
vn 0.000000 0.000000 -1.000000
vn 0.000000 0.000000 -1.000000
vn 0.000000 0.000000 -1.000000
vn 0.000000 0.000000 -1.000000
vn 0.000000 0.000000 -1.000000
vn 0.000000 0.000000 -1.000000
vn 0.000000 0.000000 -1.000000
vn -0.267501 -0.963558 0.000000
vn 0.014066 -0.999901 0.000000
vn -0.267500 -0.963558 0.000000
vn -0.267500 -0.963558 0.000000
vn 0.014066 -0.999901 0.000000
vn 0.732014 -0.681290 0.000000
vn -0.267500 -0.963558 0.000000
vn 0.732014 -0.681290 0.000000
vn 0.014066 -0.999901 0.000000
vn 0.014066 -0.999901 0.000000
vn 0.732014 -0.681290 0.000000
vn 0.732014 -0.681290 0.000000
vn 0.732014 -0.681290 0.000000
vn 0.732014 -0.681290 0.000000
vn 0.999995 0.003086 0.000000
vn 0.999995 0.003086 0.000000
vn 0.732014 -0.681290 0.000000
vn 0.267500 0.963558 0.000001
vn 0.732014 -0.681290 0.000000
vn 0.999995 0.003086 0.000000
vn 0.267500 0.963558 0.000001
vn 0.267500 0.963558 0.000001
vn 0.999995 0.003086 0.000000
vn 0.267501 0.963558 0.000000
vn -0.732014 0.681290 0.000000
vn -0.738836 0.673885 0.000000
vn -0.267500 -0.963558 0.000000
vn -0.267501 -0.963558 0.000000
vn -0.267500 -0.963558 0.000000
vn -0.738836 0.673885 0.000000
vn -0.267500 -0.963558 0.000000
vn -0.738837 0.673884 0.000000
vn -0.732014 0.681290 0.000000
vn -0.732014 0.681290 0.000000
vn -0.738837 0.673884 0.000000
vn -0.732014 0.681289 0.000000
vn 0.000000 0.000000 1.000000
vn 0.000000 0.000000 1.000000
vn 0.000000 0.000000 1.000000
vn 0.000000 0.000000 1.000000
vn 0.000000 0.000000 1.000000
vn 0.000000 0.000000 1.000000
vn 0.000000 0.000000 1.000000
vn 0.000000 0.000000 1.000000
vn 0.000000 0.000000 1.000000
vn 0.000000 0.000000 1.000000
vn 0.000000 0.000000 1.000000
vn 0.000000 0.000000 1.000000
vn 0.000000 0.000000 1.000000
vn 0.000000 0.000000 1.000000
vn 0.000000 0.000000 1.000000
vn 0.000000 0.000000 1.000000
vn 0.000000 0.000000 1.000000
vn 0.000000 0.000000 1.000000
vn 0.000000 0.000000 1.000000
vn 0.000000 0.000000 1.000000
vn 0.000000 0.000000 1.000000
vn 0.000000 0.000000 1.000000
vn 0.000000 0.000000 1.000000
vn 0.000000 0.000000 1.000000
vn 0.000000 0.000000 -1.000000
vn 0.000000 0.000000 -1.000000
vn 0.000000 0.000000 -1.000000
vn 0.000000 0.000000 -1.000000
vn 0.000000 0.000000 -1.000000
vn 0.000000 0.000000 -1.000000
vn 0.000000 0.000000 -1.000000
vn 0.000000 0.000000 -1.000000
vn 0.000000 0.000000 -1.000000
vn 0.000000 0.000000 -1.000000
vn 0.000000 0.000000 -1.000000
vn 0.000000 0.000000 -1.000000
vn 0.000000 0.000000 -1.000000
vn 0.000000 0.000000 -1.000000
vn 0.000000 0.000000 -1.000000
vn 0.000000 0.000000 -1.000000
vn 0.000000 0.000000 -1.000000
vn 0.000000 0.000000 -1.000000
vn 0.000000 0.000000 -1.000000
vn 0.000000 0.000000 -1.000000
vn 0.000000 0.000000 -1.000000
vn 0.000000 0.000000 -1.000000
vn 0.000000 0.000000 -1.000000
vn 0.000000 0.000000 -1.000000
s off
g pCube1
usemtl Block_initialShadingGroup
f 1/1/1 10/2/2 12/3/3
f 12/3/4 10/2/5 9/4/6
f 3/5/7 11/6/8 15/7/9
f 15/7/10 11/6/11 13/8/12
f 3/9/13 15/10/14 5/11/15
f 5/11/16 15/10/17 4/12/18
f 5/11/19 4/12/20 19/13/21
f 19/13/22 4/12/23 6/14/24
f 6/15/25 17/16/26 19/17/27
f 19/17/28 17/16/29 16/18/30
f 22/19/31 5/20/32 20/21/33
f 20/21/34 5/20/35 18/22/36
f 7/23/37 21/24/38 1/25/39
f 1/25/40 21/24/41 8/26/42
f 1/25/43 8/26/44 10/27/45
f 10/27/46 8/26/47 2/28/48
f 2/29/49 8/30/50 14/31/51
f 14/31/52 8/30/53 4/32/54
f 8/30/55 17/33/56 4/32/57
f 4/32/58 17/33/59 6/34/60
f 5/35/61 22/36/62 1/37/63
f 7/38/64 1/37/65 22/36/66
f 1/37/67 12/39/68 5/35/69
f 5/35/70 12/39/71 3/40/72
f 2/41/73 11/6/74 10/2/75
f 10/2/76 11/6/77 9/4/78
f 11/6/79 3/5/80 9/4/81
f 9/4/82 3/5/83 12/3/84
f 11/6/85 2/41/86 13/8/87
f 13/8/88 2/41/89 14/42/90
f 4/43/91 15/7/92 14/42/93
f 14/42/94 15/7/95 13/8/96
f 17/16/97 8/44/98 16/18/99
f 16/18/100 8/44/101 18/22/102
f 5/20/103 19/17/104 18/22/105
f 18/22/106 19/17/107 16/18/108
f 8/44/109 21/45/110 18/22/111
f 18/22/112 21/45/113 20/21/114
f 7/46/115 22/19/116 21/45/117
f 21/45/118 22/19/119 20/21/120
