# This file uses centimeters as units for non-parametric coordinates.

mtllib Mover.mtl
g default1
v 1.095087 2.354112 0.603657
v 1.097909 2.354707 -0.751221
v 1.095085 2.837509 0.604324
v 1.097907 2.838105 -0.750555
v 0.589269 3.288922 0.601641
v 0.592091 3.289517 -0.753238
v -2.339926 3.288919 0.582503
v -2.337105 3.289514 -0.772376
v -2.845739 2.837506 0.578578
v -2.842918 2.838101 -0.776301
v -2.845737 2.354108 0.577910
v -2.842916 2.354703 -0.776967
vt 0.375000 0.000000
vt 0.625000 0.000000
vt 0.375000 0.125000
vt 0.625000 0.125000
vt 0.375000 0.250000
vt 0.625000 0.250000
vt 0.375000 0.500000
vt 0.625000 0.500000
vt 0.375000 0.625000
vt 0.625000 0.625000
vt 0.375000 0.750000
vt 0.625000 0.750000
vt 0.375000 1.000000
vt 0.625000 1.000000
vt 0.875000 0.000000
vt 0.875000 0.125000
vt 0.875000 0.250000
vt 0.125000 0.000000
vt 0.125000 0.125000
vt 0.125000 0.250000
vn 0.999998 0.000001 0.002082
vn 0.999998 0.000001 0.002082
vn 0.879500 0.475895 0.002040
vn 0.879500 0.475895 0.002040
vn 0.999998 0.000001 0.002082
vn 0.879500 0.475895 0.002040
vn 0.879500 0.475895 0.002040
vn 0.879500 0.475895 0.002040
vn 0.665838 0.746095 0.001715
vn 0.665838 0.746095 0.001715
vn 0.879500 0.475895 0.002040
vn 0.665838 0.746095 0.001715
vn -0.000004 1.000000 0.000439
vn -0.000004 1.000000 0.000439
vn -0.000004 1.000000 0.000439
vn -0.000004 1.000000 0.000439
vn -0.000004 1.000000 0.000439
vn -0.000004 1.000000 0.000439
vn -0.665842 0.746092 -0.001059
vn -0.665842 0.746092 -0.001059
vn -0.879502 0.475892 -0.001622
vn -0.879502 0.475892 -0.001622
vn -0.665842 0.746092 -0.001059
vn -0.879503 0.475891 -0.001622
vn -0.879502 0.475892 -0.001622
vn -0.879503 0.475891 -0.001622
vn -0.999998 -0.000001 -0.002082
vn -0.999998 -0.000001 -0.002082
vn -0.879503 0.475891 -0.001622
vn -0.999998 -0.000001 -0.002082
vn 0.000004 -1.000000 -0.000439
vn 0.000004 -1.000000 -0.000439
vn 0.000004 -1.000000 -0.000439
vn 0.000004 -1.000000 -0.000439
vn 0.000004 -1.000000 -0.000439
vn 0.000004 -1.000000 -0.000439
vn 0.006532 0.001378 -0.999978
vn 0.006532 0.001378 -0.999978
vn 0.006532 0.001378 -0.999978
vn 0.006532 0.001378 -0.999978
vn 0.006532 0.001378 -0.999978
vn 0.006532 0.001378 -0.999978
vn 0.006532 0.001378 -0.999978
vn 0.006532 0.001378 -0.999978
vn 0.006532 0.001378 -0.999978
vn 0.006532 0.001378 -0.999978
vn 0.006532 0.001378 -0.999978
vn 0.006532 0.001378 -0.999978
vn -0.006532 -0.001378 0.999978
vn -0.006532 -0.001378 0.999978
vn -0.006532 -0.001378 0.999978
vn -0.006532 -0.001378 0.999978
vn -0.006532 -0.001378 0.999978
vn -0.006532 -0.001378 0.999978
vn -0.006532 -0.001378 0.999978
vn -0.006532 -0.001378 0.999978
vn -0.006532 -0.001378 0.999978
vn -0.006532 -0.001378 0.999978
vn -0.006532 -0.001378 0.999978
vn -0.006532 -0.001378 0.999978
s off
g Mesh Mover_pCube24 polySurface2 polySurface3 polySurface4 polySurface1
usemtl pCube25
f 1/1/1 2/2/2 3/3/3
f 3/3/4 2/2/5 4/4/6
f 3/3/7 4/4/8 5/5/9
f 5/5/10 4/4/11 6/6/12
f 5/5/13 6/6/14 7/7/15
f 7/7/16 6/6/17 8/8/18
f 7/7/19 8/8/20 9/9/21
f 9/9/22 8/8/23 10/10/24
f 9/9/25 10/10/26 11/11/27
f 11/11/28 10/10/29 12/12/30
f 11/11/31 12/12/32 1/13/33
f 1/13/34 12/12/35 2/14/36
f 2/2/37 12/15/38 4/4/39
f 4/4/40 12/15/41 10/16/42
f 4/4/43 10/16/44 6/6/45
f 6/6/46 10/16/47 8/17/48
f 11/18/49 1/1/50 9/19/51
f 9/19/52 1/1/53 3/3/54
f 9/19/55 3/3/56 7/20/57
f 7/20/58 3/3/59 5/5/60
