# This file uses centimeters as units for non-parametric coordinates.

mtllib BallPlane.mtl
g default
v -10.347421 12.062352 -0.172009
v -5.909862 12.062352 -0.172009
v -10.347421 7.624793 -0.172009
v -5.909862 7.624793 -0.172009
vt 0.000000 0.000000
vt 1.000000 0.000000
vt 0.000000 1.000000
vt 1.000000 1.000000
vn 0.000000 0.000000 -1.000000
vn 0.000000 0.000000 -1.000000
vn 0.000000 0.000000 -1.000000
vn 0.000000 0.000000 -1.000000
s 1
g pPlane5
usemtl initialShadingGroup
f 1/1/1 2/2/2 3/3/3
f 3/3/3 2/2/2 4/4/4
