# This file uses centimeters as units for non-parametric coordinates.

mtllib Digits.mtl
g default
v -3.840896 15.498289 -0.172009
v -1.762372 15.498289 -0.172009
v -3.840896 13.419766 -0.172009
v -1.762372 13.419766 -0.172009
vt 0.000000 0.000000
vt 1.000000 0.000000
vt 0.000000 1.000000
vt 1.000000 1.000000
vn 0.000000 0.000000 -1.000000
vn 0.000000 0.000000 -1.000000
vn 0.000000 0.000000 -1.000000
vn 0.000000 0.000000 -1.000000
s 1
g pasted__pPlane5 group13
usemtl initialShadingGroup
f 1/1/1 2/2/2 3/3/3
f 3/3/3 2/2/2 4/4/4
