# This file uses centimeters as units for non-parametric coordinates.

mtllib Ladders_Newl.mtl
g default
v -5.133427 8.778604 -0.504104
v -5.133427 8.778604 0.270171
v -7.557316 11.994427 -0.504104
v -7.557316 11.994427 0.270171
v -7.789964 11.994427 -0.504104
v -7.789964 11.994427 0.270171
v -7.789964 8.778604 -0.504104
v -7.789964 8.778604 0.270171
v -7.456811 8.415607 -0.504104
v -7.456811 8.415607 0.270171
v -5.466580 8.415607 0.270171
v -5.466580 8.415607 -0.504104
v -6.904451 8.778604 0.270171
v -6.018939 8.778604 0.270171
v -7.712415 9.850545 0.270171
v -7.634865 10.922486 0.270171
v -6.749352 10.922485 0.270171
v -5.941390 9.850545 0.270171
v -6.826902 9.850545 0.270171
v -6.018940 8.778604 -0.504104
v -6.904452 8.778604 -0.504104
v -7.634865 10.922485 -0.504104
v -7.712415 9.850545 -0.504104
v -5.941390 9.850545 -0.504104
v -6.749353 10.922486 -0.504104
v -6.826902 9.850545 -0.504104
v 3.459356 8.778431 -0.504104
v 3.459356 8.778431 0.270171
v 5.882178 11.994253 -0.504104
v 5.882178 11.994253 0.270171
v 6.114723 11.994253 -0.504104
v 6.114723 11.994253 0.270171
v 6.114723 8.778431 -0.504104
v 6.114723 8.778431 0.270171
v 5.781717 8.415433 -0.504104
v 5.781717 8.415433 0.270171
v 3.792363 8.415433 0.270171
v 3.792363 8.415433 -0.504104
v 5.229600 8.778429 -0.504104
v 4.344479 8.778431 -0.504104
v 6.037208 9.850372 -0.504104
v 5.959693 10.922314 -0.504104
v 4.344479 8.778429 0.270171
v 5.229601 8.778431 0.270171
v 5.959693 10.922312 0.270171
v 6.037208 9.850372 0.270171
v 4.266964 9.850372 0.270171
v 5.074571 10.922314 0.270171
v 5.074571 10.922312 -0.504104
v 4.266964 9.850372 -0.504104
v 5.152085 9.850372 -0.504104
v 5.152085 9.850372 0.270171
vt 0.375000 0.250000
vt 0.625000 0.000000
vt 0.375000 0.166667
vt 0.375000 0.083333
vt 0.375000 0.000000
vt 0.625000 0.083333
vt 0.625000 0.166667
vt 0.625000 0.250000
vt 0.375000 0.500000
vt 0.625000 0.500000
vt 0.375000 0.750000
vt 0.625000 0.750000
vt 0.375000 0.750000
vt 0.375000 1.000000
vt 0.625000 0.750000
vt 0.625000 1.000000
vt 0.875000 0.000000
vt 0.791667 0.083333
vt 0.875000 0.250000
vt 0.708333 0.166667
vt 0.708333 0.000000
vt 0.125000 0.000000
vt 0.125000 0.250000
vt 0.208333 0.083333
vt 0.291667 0.166667
vt 0.208333 0.000000
vt 0.625000 1.000000
vt 0.625000 0.916667
vt 0.625000 0.833333
vt 0.375000 1.000000
vt 0.375000 0.833333
vt 0.375000 0.916667
vt 0.791667 0.000000
vt 0.708333 0.083333
vt 0.291667 0.000000
vt 0.291667 0.083333
vt 0.375000 0.250000
vt 0.375000 0.166667
vt 0.625000 0.000000
vt 0.375000 0.083333
vt 0.375000 0.000000
vt 0.625000 0.083333
vt 0.625000 0.166667
vt 0.625000 0.250000
vt 0.375000 0.500000
vt 0.625000 0.500000
vt 0.375000 0.750000
vt 0.625000 0.750000
vt 0.375000 0.750000
vt 0.625000 0.750000
vt 0.375000 1.000000
vt 0.625000 1.000000
vt 0.875000 0.000000
vt 0.875000 0.250000
vt 0.791667 0.083333
vt 0.708333 0.166667
vt 0.708333 0.000000
vt 0.125000 0.000000
vt 0.208333 0.083333
vt 0.125000 0.250000
vt 0.291667 0.166667
vt 0.208333 0.000000
vt 0.625000 1.000000
vt 0.625000 0.916667
vt 0.625000 0.833333
vt 0.375000 1.000000
vt 0.375000 0.833333
vt 0.375000 0.916667
vt 0.291667 0.000000
vt 0.291667 0.083333
vt 0.791667 0.000000
vt 0.708333 0.083333
vn 0.798565 0.601909 0.000000
vn 0.798565 0.601909 0.000000
vn 0.798565 0.601909 0.000002
vn 0.798565 0.601909 0.000002
vn 0.798565 0.601909 0.000000
vn 0.798565 0.601909 0.000001
vn 0.798565 0.601909 0.000000
vn 0.798565 0.601909 0.000001
vn 0.798565 0.601909 0.000000
vn 0.798565 0.601909 0.000000
vn 0.798565 0.601909 0.000000
vn 0.798565 0.601909 -0.000002
vn 0.798565 0.601909 -0.000002
vn 0.798565 0.601909 0.000000
vn 0.798565 0.601909 -0.000001
vn 0.798565 0.601909 0.000000
vn 0.798565 0.601909 0.000000
vn 0.798565 0.601909 -0.000001
vn 0.000000 1.000000 0.000000
vn 0.000000 1.000000 0.000000
vn 0.000000 1.000000 0.000000
vn 0.000000 1.000000 0.000000
vn 0.000000 1.000000 0.000000
vn 0.000000 1.000000 0.000000
vn -1.000000 0.000000 0.000000
vn -1.000000 0.000000 0.000000
vn -1.000000 0.000000 0.000000
vn -1.000000 0.000000 0.000000
vn -1.000000 0.000000 0.000000
vn -1.000000 0.000000 0.000000
vn -0.077433 -0.996998 0.000000
vn 0.077434 -0.996998 0.000000
vn -0.077434 -0.996998 0.000000
vn -0.077434 -0.996998 0.000000
vn 0.077434 -0.996998 0.000000
vn 0.077433 -0.996998 0.000000
vn 0.000000 0.000000 1.000000
vn 0.000002 0.000000 1.000000
vn 0.000000 0.000000 1.000000
vn 0.000002 0.000000 1.000000
vn -0.000001 0.000000 1.000000
vn 0.000000 0.000000 1.000000
vn 0.000000 0.000000 1.000000
vn -0.000001 0.000000 1.000000
vn 0.000000 0.000000 1.000000
vn 0.000000 0.000000 1.000000
vn 0.000000 0.000000 1.000000
vn 0.000000 0.000000 1.000000
vn 0.000000 0.000000 -1.000000
vn 0.000000 0.000000 -1.000000
vn 0.000000 0.000000 -1.000000
vn 0.000000 0.000000 -1.000000
vn 0.000000 0.000000 -1.000000
vn 0.000000 0.000000 -1.000000
vn 0.000000 0.000000 -1.000000
vn 0.000000 0.000000 -1.000000
vn 0.000000 0.000000 -1.000000
vn 0.000000 0.000000 -1.000000
vn 0.000000 0.000000 -1.000000
vn 0.000000 0.000000 -1.000000
vn -0.476261 -0.879304 0.000000
vn -0.077433 -0.996998 0.000000
vn -0.476265 -0.879302 0.000000
vn -0.476265 -0.879302 0.000000
vn -0.077433 -0.996998 0.000000
vn -0.077434 -0.996998 0.000000
vn 0.000000 0.000000 1.000000
vn 0.000000 0.000000 1.000000
vn 0.000000 0.000000 1.000000
vn 0.000000 0.000000 1.000000
vn 0.000000 0.000001 1.000000
vn 0.000000 0.000000 1.000000
vn 0.000000 0.000000 1.000000
vn 0.000000 0.000000 1.000000
vn 0.000000 0.000001 1.000000
vn 0.000000 0.000000 1.000000
vn 0.000000 0.000000 1.000000
vn 0.000000 0.000000 1.000000
vn 0.476261 -0.879304 0.000000
vn 0.077433 -0.996998 0.000000
vn 0.476264 -0.879302 0.000000
vn 0.476264 -0.879302 0.000000
vn 0.077433 -0.996998 0.000000
vn 0.077434 -0.996998 0.000000
vn 0.000000 0.000000 -1.000000
vn 0.000000 0.000000 -1.000000
vn 0.000000 0.000000 -1.000000
vn 0.000000 0.000000 -1.000000
vn 0.000000 0.000000 -1.000000
vn 0.000000 0.000000 -1.000000
vn 0.000000 0.000000 -1.000000
vn 0.000000 0.000000 -1.000000
vn 0.000000 0.000000 -1.000000
vn 0.000000 0.000000 -1.000000
vn 0.000000 0.000000 -1.000000
vn 0.000000 0.000000 -1.000000
vn 0.000000 0.000000 1.000000
vn 0.000000 0.000000 1.000000
vn 0.000000 0.000000 1.000000
vn 0.000000 0.000000 1.000000
vn 0.000000 0.000000 1.000000
vn 0.000000 0.000000 1.000000
vn 0.000000 0.000000 1.000000
vn 0.000000 0.000000 1.000000
vn 0.000000 0.000000 1.000000
vn 0.000000 0.000000 1.000000
vn 0.000000 0.000000 1.000000
vn 0.000000 0.000000 1.000000
vn 0.000000 0.000000 1.000000
vn 0.000000 0.000000 1.000000
vn 0.000000 0.000000 1.000000
vn 0.000000 0.000000 1.000000
vn 0.000000 0.000000 1.000000
vn 0.000000 0.000000 1.000000
vn 0.000000 0.000000 1.000000
vn 0.000000 0.000000 1.000000
vn 0.000000 0.000000 1.000000
vn 0.000000 0.000000 1.000000
vn 0.000000 0.000000 1.000000
vn 0.000000 0.000000 1.000000
vn 0.000000 0.000000 -1.000000
vn 0.000000 0.000000 -1.000000
vn 0.000000 0.000000 -1.000000
vn 0.000000 0.000000 -1.000000
vn 0.000000 0.000000 -1.000000
vn 0.000000 0.000000 -1.000000
vn 0.000000 0.000000 -1.000000
vn 0.000000 0.000000 -1.000000
vn 0.000000 0.000000 -1.000000
vn 0.000000 0.000000 -1.000000
vn 0.000000 0.000000 -1.000000
vn 0.000000 0.000000 -1.000000
vn 0.000000 0.000000 -1.000000
vn 0.000000 0.000000 -1.000000
vn 0.000000 0.000000 -1.000000
vn 0.000000 0.000000 -1.000000
vn 0.000000 0.000000 -1.000000
vn 0.000000 0.000000 -1.000000
vn 0.000000 0.000000 -1.000000
vn 0.000000 0.000000 -1.000000
vn 0.000000 0.000000 -1.000000
vn 0.000000 0.000000 -1.000000
vn 0.000000 0.000000 -1.000000
vn 0.000000 0.000000 -1.000000
vn -0.798693 0.601739 0.000000
vn -0.798692 0.601740 0.000000
vn -0.798692 0.601740 0.000000
vn -0.798692 0.601740 0.000000
vn -0.798692 0.601740 0.000000
vn -0.798692 0.601740 0.000000
vn -0.798692 0.601740 0.000000
vn -0.798692 0.601740 0.000000
vn -0.798692 0.601740 0.000000
vn -0.798692 0.601740 0.000000
vn -0.798692 0.601740 0.000000
vn -0.798692 0.601740 0.000000
vn -0.798692 0.601740 0.000000
vn -0.798692 0.601740 -0.000003
vn -0.798692 0.601740 0.000000
vn -0.798692 0.601740 0.000000
vn -0.798692 0.601740 -0.000003
vn -0.798692 0.601740 0.000000
vn 0.000000 1.000000 0.000000
vn 0.000000 1.000000 0.000000
vn 0.000000 1.000000 0.000000
vn 0.000000 1.000000 0.000000
vn 0.000000 1.000000 0.000000
vn 0.000000 1.000000 0.000000
vn 1.000000 0.000000 0.000000
vn 1.000000 0.000000 0.000000
vn 1.000000 0.000000 0.000000
vn 1.000000 0.000000 0.000000
vn 1.000000 0.000000 0.000000
vn 1.000000 0.000000 0.000000
vn 0.077467 -0.996995 0.000000
vn 0.077466 -0.996995 0.000000
vn -0.077466 -0.996995 0.000000
vn -0.077466 -0.996995 0.000000
vn 0.077466 -0.996995 0.000000
vn -0.077467 -0.996995 0.000000
vn 0.000000 0.000000 1.000000
vn 0.000000 0.000000 1.000000
vn 0.000000 0.000000 1.000000
vn 0.000000 0.000000 1.000000
vn 0.000000 0.000000 1.000000
vn -0.000001 0.000000 1.000000
vn 0.000000 0.000000 1.000000
vn 0.000000 0.000000 1.000000
vn -0.000001 0.000000 1.000000
vn 0.000000 0.000000 1.000000
vn 0.000000 0.000000 1.000000
vn 0.000000 0.000000 1.000000
vn 0.000000 0.000000 -1.000000
vn 0.000000 0.000000 -1.000000
vn 0.000000 0.000000 -1.000000
vn 0.000000 0.000000 -1.000000
vn 0.000000 0.000000 -1.000000
vn 0.000000 0.000000 -1.000000
vn 0.000000 0.000000 -1.000000
vn 0.000000 0.000000 -1.000000
vn 0.000000 0.000000 -1.000000
vn 0.000000 0.000000 -1.000000
vn 0.000000 0.000000 -1.000000
vn 0.000000 0.000000 -1.000000
vn 0.476429 -0.879213 0.000000
vn 0.476426 -0.879215 0.000000
vn 0.077467 -0.996995 0.000000
vn 0.077467 -0.996995 0.000000
vn 0.476426 -0.879215 0.000000
vn 0.077466 -0.996995 0.000000
vn 0.000000 0.000000 1.000000
vn 0.000000 0.000000 1.000000
vn 0.000000 0.000001 1.000000
vn 0.000000 0.000001 1.000000
vn 0.000000 0.000000 1.000000
vn 0.000000 0.000000 1.000000
vn 0.000000 0.000000 1.000000
vn 0.000000 0.000000 1.000000
vn 0.000000 0.000000 1.000000
vn 0.000000 0.000000 1.000000
vn 0.000000 0.000000 1.000000
vn 0.000000 0.000000 1.000000
vn -0.476429 -0.879213 0.000000
vn -0.476426 -0.879215 0.000000
vn -0.077467 -0.996995 0.000000
vn -0.077467 -0.996995 0.000000
vn -0.476426 -0.879215 0.000000
vn -0.077466 -0.996995 0.000000
vn 0.000000 0.000000 -1.000000
vn 0.000000 0.000000 -1.000000
vn 0.000000 0.000000 -1.000000
vn 0.000000 0.000000 -1.000000
vn 0.000000 0.000000 -1.000000
vn 0.000000 0.000000 -1.000000
vn 0.000000 0.000000 -1.000000
vn 0.000000 0.000000 -1.000000
vn 0.000000 0.000000 -1.000000
vn 0.000000 0.000000 -1.000000
vn 0.000000 0.000000 -1.000000
vn 0.000000 0.000000 -1.000000
vn 0.000000 0.000000 -1.000000
vn 0.000000 0.000000 -1.000000
vn 0.000000 0.000000 -1.000000
vn 0.000000 0.000000 -1.000000
vn 0.000000 0.000000 -1.000000
vn 0.000000 0.000000 -1.000000
vn 0.000000 0.000000 -1.000000
vn 0.000000 0.000000 -1.000000
vn 0.000000 0.000000 -1.000000
vn 0.000000 0.000000 -1.000000
vn 0.000000 0.000000 -1.000000
vn 0.000000 0.000000 -1.000000
vn 0.000000 0.000000 -1.000000
vn 0.000000 0.000000 -1.000000
vn 0.000000 0.000000 -1.000000
vn 0.000000 0.000000 -1.000000
vn 0.000000 0.000000 -1.000000
vn 0.000000 0.000000 -1.000000
vn 0.000000 0.000000 -1.000000
vn 0.000000 0.000000 -1.000000
vn 0.000000 0.000000 -1.000000
vn 0.000000 0.000000 -1.000000
vn 0.000000 0.000000 -1.000000
vn 0.000000 0.000000 -1.000000
vn 0.000000 0.000000 1.000000
vn 0.000000 0.000000 1.000000
vn 0.000000 0.000000 1.000000
vn 0.000000 0.000000 1.000000
vn 0.000000 0.000000 1.000000
vn 0.000000 0.000000 1.000000
vn 0.000000 0.000000 1.000000
vn 0.000000 0.000000 1.000000
vn 0.000000 0.000000 1.000000
vn 0.000000 0.000000 1.000000
vn 0.000000 0.000000 1.000000
vn 0.000000 0.000000 1.000000
vn 0.000000 0.000000 1.000000
vn 0.000000 0.000000 1.000000
vn 0.000000 0.000000 1.000000
vn 0.000000 0.000000 1.000000
vn 0.000000 0.000000 1.000000
vn 0.000000 0.000000 1.000000
vn 0.000000 0.000000 1.000000
vn 0.000000 0.000000 1.000000
vn 0.000000 0.000000 1.000000
vn 0.000000 0.000000 1.000000
vn 0.000000 0.000000 1.000000
vn 0.000000 0.000000 1.000000
s off
g polySurface19
usemtl Ladders_Newl_Ladders_All_Low_initialShadingGroup4
f 3/1/1 2/2/2 25/3/3
f 25/3/4 2/2/5 24/4/6
f 1/5/7 24/4/8 2/2/9
f 2/2/10 3/1/11 18/6/12
f 18/6/13 3/1/14 17/7/15
f 3/1/16 4/8/17 17/7/18
f 3/1/19 5/9/20 4/8/21
f 4/8/22 5/9/23 6/10/24
f 5/9/25 7/11/26 6/10/27
f 6/10/28 7/11/29 8/12/30
f 9/13/31 12/14/32 10/15/33
f 10/15/34 12/14/35 11/16/36
f 8/17/37 15/18/38 6/19/39
f 15/18/40 16/20/41 6/19/42
f 6/19/43 16/20/44 4/8/45
f 2/2/46 18/6/47 14/21/48
f 7/22/49 5/23/50 23/24/51
f 23/24/52 5/23/53 22/25/54
f 5/23/55 3/1/56 22/25/57
f 7/22/58 23/24/59 21/26/60
f 7/11/61 9/13/62 8/12/63
f 8/12/64 9/13/65 10/15/66
f 2/27/67 14/28/68 10/15/69
f 14/28/70 13/29/71 10/15/72
f 8/12/73 10/15/74 13/29/75
f 2/27/76 10/15/77 11/16/78
f 2/27/79 11/16/80 1/30/81
f 1/30/82 11/16/83 12/14/84
f 7/11/85 21/31/86 12/14/87
f 21/31/88 20/32/89 12/14/90
f 1/30/91 12/14/92 20/32/93
f 7/11/94 12/14/95 9/13/96
f 13/33/97 15/18/98 8/17/99
f 16/20/100 17/7/101 4/8/102
f 16/20/103 19/34/104 17/7/105
f 15/18/106 19/34/107 16/20/108
f 13/33/109 19/34/110 15/18/111
f 14/21/112 19/34/113 13/33/114
f 19/34/115 18/6/116 17/7/117
f 14/21/118 18/6/119 19/34/120
f 20/35/121 24/4/122 1/5/123
f 25/3/124 22/25/125 3/1/126
f 25/3/127 26/36/128 22/25/129
f 24/4/130 26/36/131 25/3/132
f 20/35/133 26/36/134 24/4/135
f 21/26/136 26/36/137 20/35/138
f 26/36/139 23/24/140 22/25/141
f 21/26/142 23/24/143 26/36/144
f 29/37/145 49/38/146 28/39/147
f 49/38/148 50/40/149 28/39/150
f 27/41/151 28/39/152 50/40/153
f 28/39/154 47/42/155 29/37/156
f 47/42/157 48/43/158 29/37/159
f 29/37/160 48/43/161 30/44/162
f 29/37/163 30/44/164 31/45/165
f 31/45/166 30/44/167 32/46/168
f 31/45/169 32/46/170 33/47/171
f 33/47/172 32/46/173 34/48/174
f 35/49/175 36/50/176 38/51/177
f 38/51/178 36/50/179 37/52/180
f 34/53/181 32/54/182 46/55/183
f 46/55/184 32/54/185 45/56/186
f 32/54/187 30/44/188 45/56/189
f 28/39/190 43/57/191 47/42/192
f 33/58/193 41/59/194 31/60/195
f 41/59/196 42/61/197 31/60/198
f 31/60/199 42/61/200 29/37/201
f 33/58/202 39/62/203 41/59/204
f 33/47/205 34/48/206 35/49/207
f 35/49/208 34/48/209 36/50/210
f 28/63/211 36/50/212 43/64/213
f 43/64/214 36/50/215 44/65/216
f 34/48/217 44/65/218 36/50/219
f 36/50/220 28/63/221 37/52/222
f 28/63/223 27/66/224 37/52/225
f 37/52/226 27/66/227 38/51/228
f 33/47/229 38/51/230 39/67/231
f 39/67/232 38/51/233 40/68/234
f 27/66/235 40/68/236 38/51/237
f 38/51/238 33/47/239 35/49/240
f 42/61/241 49/38/242 29/37/243
f 50/40/244 40/69/245 27/41/246
f 50/40/247 51/70/248 40/69/249
f 49/38/250 51/70/251 50/40/252
f 42/61/253 51/70/254 49/38/255
f 41/59/256 51/70/257 42/61/258
f 51/70/259 39/62/260 40/69/261
f 41/59/262 39/62/263 51/70/264
f 48/43/265 45/56/266 30/44/267
f 46/55/268 44/71/269 34/53/270
f 46/55/271 52/72/272 44/71/273
f 45/56/274 52/72/275 46/55/276
f 48/43/277 52/72/278 45/56/279
f 47/42/280 52/72/281 48/43/282
f 52/72/283 43/57/284 44/71/285
f 47/42/286 43/57/287 52/72/288
